<?xml version="1.0" encoding="UTF-8"?><svg xmlns="http://www.w3.org/2000/svg" xmlns:xlink="http://www.w3.org/1999/xlink" viewBox="0 0 150 150"><defs><linearGradient id="linear-gradient" x1="75" y1="146" x2="75" y2="4" gradientUnits="userSpaceOnUse"><stop offset="0" stop-color="red"/><stop offset=".5" stop-color="red" stop-opacity="0"/><stop offset="1" stop-color="#fff"/></linearGradient></defs><g id="icons"><path id="push-cars" d="M111.43,96.59c0,1.27-.22,2.48-.62,3.61l-3.13-3.13c0-.15.02-.3.02-.45,0-3.96-3.22-7.17-7.2-7.17-.14,0-.28.01-.42.02l-3.13-3.13c1.12-.38,2.31-.6,3.55-.6,6.02,0,10.9,4.85,10.92,10.84ZM111.87,68.64l-17.05-7.67-1.44,5.9v.07s-1.8,7.32-1.8,7.32c-.12.5-.57.85-1.08.85h-4.78l9.51,9.51c1.29-.56,2.69-.94,4.16-1.06,7.24-.61,13.6,4.74,14.22,11.95h3.39v-18.96c0-3.41-2.01-6.5-5.13-7.9ZM49.49,91.67c-2.74,0-4.96,2.21-4.96,4.95s2.22,4.95,4.97,4.95,4.97-2.21,4.97-4.95c0-2.73-2.22-4.94-4.97-4.95ZM59.5,75.12c-.52,0-.96-.35-1.08-.85l-1.69-6.94-6.81-6.81h-10.29c-3.65,0-6.61,2.95-6.62,6.59v28.4h3.39c.54-6.36,5.61-11.41,12-11.95,7.24-.61,13.6,4.74,14.22,11.95h22.3l-20.39-20.39h-5.01ZM77.62,65.27c.38,0,.73-.18.93-.5l2.77-4.21,9.71,6.57.56-2.31-9.05-6.12,2.95-4.48c.34-.51.2-1.2-.32-1.54-.51-.34-1.21-.2-1.55.31l-6.95,10.56c-.12.18-.19.4-.19.62,0,.61.5,1.1,1.12,1.1ZM60.41,96.59v.06c-.02,5.98-4.88,10.83-10.89,10.84-6.03.02-10.93-4.84-10.95-10.84-.02-6.01,4.86-10.89,10.89-10.91,6.03-.02,10.94,4.84,10.95,10.84ZM56.69,96.62c0-3.96-3.22-7.17-7.2-7.17s-7.2,3.21-7.2,7.17,3.22,7.17,7.2,7.17c3.97,0,7.19-3.21,7.2-7.17ZM95.83,106.44l-5.19-5.19c1.08,2.27,2.91,4.11,5.19,5.19ZM102.95,92.35l1.86,1.86c-.44-.78-1.08-1.41-1.86-1.86ZM62.29,72.9l-2.53-2.53.62,2.53h1.91ZM44.92,55.53v2.77h2.77l-2.77-2.77Z" fill="#fff"/></g><g id="no"><g id="_no_"><path d="M75,4C35.85,4,4,35.85,4,75s31.85,71,71,71,71-31.85,71-71S114.15,4,75,4ZM137,75c0,15.48-5.7,29.65-15.11,40.52L34.48,28.11c10.87-9.41,25.04-15.11,40.52-15.11,34.19,0,62,27.81,62,62ZM13,75c0-15.48,5.7-29.65,15.11-40.52l87.41,87.41c-10.87,9.41-25.04,15.11-40.52,15.11-34.19,0-62-27.81-62-62Z" fill="#a60321"/><g opacity=".5"><path d="M75,4C35.85,4,4,35.85,4,75s31.85,71,71,71,71-31.85,71-71S114.15,4,75,4ZM137,75c0,15.48-5.7,29.65-15.11,40.52L34.48,28.11c10.87-9.41,25.04-15.11,40.52-15.11,34.19,0,62,27.81,62,62ZM13,75c0-15.48,5.7-29.65,15.11-40.52l87.41,87.41c-10.87,9.41-25.04,15.11-40.52,15.11-34.19,0-62-27.81-62-62Z" fill="url(#linear-gradient)"/></g></g></g></svg>