<?xml version="1.0" encoding="UTF-8"?>
<svg id="map" xmlns="http://www.w3.org/2000/svg" version="1.1" viewBox="0 0 50 50">
  <!-- Generator: Adobe Illustrator 30.5.1, SVG Export Plug-In . SVG Version: 2.1.4 Build 3)  -->
  <path d="M27.61,1.77h3.39v1.72h1.72v1.72h1.72v1.67h-1.72v1.77h1.72v3.44h1.77v-6.95h-1.72v-1.67h1.72V0h-10.39v1.77h1.79ZM34.45,1.77v1.67h-1.67v-1.67s1.67,0,1.67,0ZM25.89,5.22h-1.77v-1.77h1.77v1.77ZM50,15.51v1.77h-1.77v-1.77h1.77ZM1.72,19.02H0v-5.22h1.77v3.44h3.44v3.5h-1.77v-1.72s-1.72,0-1.72,0ZM25.89,20.74h-1.77v-1.77h1.77v1.77ZM48.23,22.41h1.77v1.77h-1.77v-1.77ZM48.23,29.3h1.77v1.77h-1.77v-1.77ZM24.11,32.75h1.77v1.77h-1.77v-1.77ZM48.28,32.75h-1.72v-5.12h1.72v-1.77h-1.72v-5.12h1.72v-1.77h-1.77v1.72h-3.39v-5.12h3.44v-1.77h-8.66v3.5h1.72v1.72h1.72v1.67h-1.72v1.72h-3.39v-3.44h-3.5v1.77h1.72v1.67h-3.39v-1.72h-1.72v-1.67h1.72v-1.72h5.17v-1.77h-1.72v-1.72h-1.72v-3.44h-1.77v3.44h-1.72v1.72h-1.67v-3.39h1.72v-3.5h-1.72v-1.67h3.44v-1.77h-1.72v-1.72h-1.77v3.44h-5.12V0h-6.94v1.77h5.17v1.67h-6.89v10.4h1.77v-3.44h1.67v1.72h1.72v1.67h-1.72v1.77h3.5v-3.44h1.67v1.72h1.72v1.72h1.72v1.72h3.44v1.67h-1.72v3.44h-5.12v-1.72h-1.77v1.77h1.72v1.67h-1.72v1.77h1.72v1.67h-3.39v-1.72h-1.72v-1.67h1.72v-1.77h-1.77v1.72h-1.67v-3.39h1.72v-1.72h5.17v-1.77h-5.22v1.72h-1.72v1.72h-1.67v-1.72h-1.72v-1.67h3.44v-1.77h-3.44v-1.72H3.44v1.77h5.17v1.72h1.72v1.67h-1.72v1.72h-1.72v1.77h1.72v1.72h1.72v1.72h1.72v1.67h-1.72v1.77h1.72v1.67h-3.39v-1.72h-3.44v-1.67h1.72v-1.77h-1.72v-3.44H1.72v1.72H0v1.77h1.77v-1.72h1.67v1.72h1.72v1.67h-1.72v1.72H0v6.95h1.77v-5.17h1.67v3.44h3.44v1.72h1.77v-1.72h1.67v1.72h3.44v1.72h3.44v3.39h-1.67v-1.72h-1.77v6.95h1.72v1.67h-1.72v1.77h3.5v-3.5h-1.72v-3.39h1.67v1.72h3.44v1.67h-1.72v3.5h3.5v-1.72h3.44v-3.44h3.39v1.67h-1.72v1.77h1.77v-1.72h1.72v-1.72h1.72v-3.44h1.67v3.44h1.72v1.67h-3.44v1.72h-1.72v1.77h3.5v-1.72h1.72v-1.72h1.67v3.44h1.77v-1.72h1.67v1.72h1.77v-1.72h1.67v1.72h1.77v-1.72h1.72v-3.5h-3.44v-1.67h1.72v-1.77h-1.72v-1.67h1.72v-1.72h3.44v-3.5h-1.72v-1.72l.04.03ZM24.11,12.07h-1.67v-1.67h1.67v1.67ZM20.67,12.07h-1.67v-1.67h1.67v1.67ZM27.56,12.07h-1.67v-1.67h1.67v1.67ZM15.55,6.95h1.72v-1.72h1.67v1.72h3.44v1.67h-3.44v1.72h-1.67v-1.72h-1.72v-1.67ZM24.16,13.79v-1.67h1.67v1.67h-1.67ZM44.78,32.81h1.72v1.67h-1.72v1.72h-1.67v-1.72h-1.72v-1.72h-1.72v-1.67h3.39v1.72s1.72,0,1.72,0ZM36.22,31.07h1.67v1.67h-1.67s0-1.67,0-1.67ZM36.17,29.35v1.67h-1.67v-3.39h1.67v1.72ZM32.78,31.07h1.67v1.67h-1.67s0-1.67,0-1.67ZM36.22,39.7v-3.44h5.12v5.12h-5.12v-1.67h0ZM43.06,22.41h-1.67v-1.67h1.67v1.67ZM39.61,24.18v1.72h1.72v1.72h1.77v-5.17h1.67v3.44h1.72v1.67h-1.72v1.72h-6.84v-1.72h-1.72v-1.67h1.72v-1.72h1.68ZM32.72,24.18h1.72v1.67h-1.72v3.44h-1.67v-1.72h-1.77v1.72h-1.67v-3.39h1.72v-1.72s3.39,0,3.39,0ZM27.61,22.46h1.67v1.67h-1.67v-1.67ZM24.16,25.91h1.67v1.67h-1.67v-1.67ZM25.84,44.82h-1.67v-1.67h1.67v1.67ZM22.39,43.09v1.72h-1.67v-3.39h3.39v1.67h-1.72ZM25.84,41.37h-1.67v-1.67h1.67v1.67ZM20.67,32.81v1.67h-3.39v-1.67h1.72v-1.72h1.67v1.72ZM15.55,31.07h1.67v1.67h-1.67s0-1.67,0-1.67ZM17.28,29.35h1.67v1.67h-1.67v-1.67ZM17.22,25.91v3.39h-1.72v1.72h-1.67v-5.12h3.39ZM10.39,19.02h1.67v1.67h-1.67v-1.67ZM12.06,15.56v1.67h-1.67v-1.67s1.67,0,1.67,0ZM10.39,24.13v-1.67h3.39v1.67h-3.39ZM8.61,31.07v3.39h-1.67v-3.39h1.67ZM10.39,34.48v-1.67h1.67v1.67h-1.67ZM15.5,36.2h-1.67v-3.39h1.67v1.72h1.72v1.67s-1.72,0-1.72,0ZM19,39.64v-1.72h-1.72v-1.67h3.39v5.12h-1.67v-1.72h0ZM17.28,43.09v-1.67h1.67v1.67h-1.67ZM20.72,46.6h1.67v1.67h-1.67v-1.67ZM22.44,46.54v-1.67h1.67v1.67h-1.67ZM27.61,43.09v-3.39h1.72v-1.77h-1.72v-1.67h3.44v-1.77h-1.72v-1.72h-1.77v3.44h-5.12v-5.17h-1.72v-1.67h1.72v-1.72h1.67v1.72h1.72v1.72h3.5v-1.72h1.67v3.44h1.72v1.72h1.72v3.39h-3.44v3.44h-1.72v1.72h-1.67ZM36.22,44.82v-1.67h6.84v1.67h-6.84ZM43.11,44.87h1.67v1.67h-1.67v-1.67ZM46.5,48.27h-1.67v-1.67h1.67v1.67ZM39.67,39.7h-1.77v-1.77h1.77v1.77ZM48.23,41.37h1.77v1.77h-1.77v-1.77ZM12.06,0H0v12.07h12.06V0ZM10.33,10.34H1.72V1.72h8.61v8.62ZM49.95,0h-12.06v12.07h12.06V0ZM48.23,10.34h-8.61V1.72h8.61v8.62ZM0,49.99h12.06v-12.07H0v12.07ZM1.72,39.64h8.61v8.62H1.72v-8.62ZM8.61,8.62H3.44V3.44h5.17s0,5.17,0,5.17ZM46.5,8.62h-5.17V3.44h5.17s0,5.17,0,5.17ZM3.44,41.37h5.17v5.17H3.44v-5.17Z"/>
</svg>