<?xml version="1.0" encoding="UTF-8"?>
<svg id="Layer_1" data-name="Layer 1" xmlns="http://www.w3.org/2000/svg" viewBox="0 0 154 95">
  <defs>
    <style>
      .cls-1 {
        fill: #fff;
      }
    </style>
  </defs>
  <path class="cls-1" d="M114.96,69.41h-29.12v-17.67h29.12v17.67ZM68.16,69.41h-29.12v-17.67h29.12v17.67ZM118.9,47.07l-.19-.23s-22.84-27.66-24.76-30.04c-1.92-2.38-9.05-4.37-9.05,6.13,0,3.66.06,5.41.24,6.05h0s.07.98,2.31.98c1.5,0,2.27-2.92,2.63-4.85.28.06.57.19.87.38,1.9,1.2,6.65,9.95,11.54,19.68h-50.93c4.88-9.73,9.64-18.48,11.54-19.68.3-.19.59-.31.86-.38.36,1.93,1.13,4.85,2.63,4.85,2.23,0,2.31-.98,2.31-.98h0c.17-.64.24-2.39.24-6.05,0-10.5-7.13-8.51-9.05-6.13-1.92,2.37-24.77,30.04-24.77,30.04l-.15.19c-1.36,1.13-2.25,2.8-2.25,4.71v17.67c0,3.38,2.74,6.12,6.13,6.12h29.12c3.18,0,5.75-2.42,6.06-5.52.26-.44,1.11-1.66,2.92-1.66,1.53,0,2.28.85,2.61,1.38.18,3.23,2.82,5.79,6.08,5.79h29.12c3.38,0,6.13-2.74,6.13-6.12v-17.67c0-1.88-.87-3.54-2.2-4.66"/>
</svg>