<?xml version="1.0" encoding="UTF-8"?>
<svg id="Layer_1" data-name="Layer 1" xmlns="http://www.w3.org/2000/svg" viewBox="0 0 154 95">
  <defs>
    <style>
      .cls-1 {
        fill: #fff;
      }
    </style>
  </defs>
  <path class="cls-1" d="M97.31,67.56c.13.38.11.79-.06,1.15-.17.36-.48.63-.86.77-1.99.71-4.08,1.06-6.19,1.06-1.13,0-2.26-.1-3.37-.31-3.24-.6-6.56-.93-9.85-.98-3.26.05-6.58.38-9.82.98-3.21.59-6.51.33-9.56-.76-.38-.13-.68-.41-.85-.77-.17-.36-.19-.77-.06-1.15.13-.38.41-.68.77-.86.36-.17.77-.19,1.15-.06,2.55.91,5.32,1.13,8.01.63,3.41-.63,6.89-.98,10.36-1.03,3.51.05,7,.4,10.4,1.03,2.68.49,5.45.28,8.01-.63h0c.38-.13.78-.11,1.15.06.36.17.63.48.77.85ZM137.83,53.97c0,.81-.36,1.58-.98,2.11-8.57,5.79-17.87,9.9-27.77,12.29-1.82,2.86-4.4,5.38-7.7,7.51-6.54,4.22-15.2,6.55-24.39,6.55-9.19,0-17.85-2.33-24.39-6.55-3.29-2.12-5.88-4.65-7.69-7.5-9.9-2.39-19.2-6.49-27.64-12.19-.75-.62-1.11-1.39-1.11-2.21,0-.4.09-.81.26-1.17.62-1.32,2.34-1.93,3.66-1.31,6.45,3.3,13.64,4.83,20.93,4.43-11.32-4.58-19.95-13.8-23.77-25.45l-.1-.6c0-.62.13-1.08.38-1.49.47-.74,1.27-1.18,2.14-1.18h.01c.47,0,.94.13,1.35.39l.28.23c6.46,8.42,15.51,14.31,25.66,16.75-3.25-9.49-4.94-19.51-5-29.67.1-1.13.77-1.93,1.7-2.21l.55-.09c1.14-.04,2.13.67,2.44,1.69l.04.2c1.53,9.36,5.61,18.11,11.82,25.35,5.53-2.28,11.9-3.48,18.48-3.48,6.58,0,12.94,1.2,18.47,3.48,6.21-7.24,10.3-15.99,11.82-25.36l.04-.2c.28-.92,1.08-1.58,2.03-1.69l.11-.03.09.02h0c1.29,0,2.31.93,2.43,2.16-.05,10.27-1.72,20.25-4.97,29.82,10.17-2.45,19.2-8.34,25.52-16.61l.25-.25c.54-.36,1.01-.5,1.49-.5l.53.06c1.23.32,2.01,1.33,2.01,2.48l-.11.74c-3.82,11.65-12.45,20.87-23.77,25.45,7.2.4,14.48-1.13,20.89-4.41.4-.19.81-.28,1.21-.28,0,0,0,0,.02,0,.81,0,1.57.36,2.1.98.42.5.64,1.12.64,1.77ZM98.29,41.15c1.15.58,2.17,1.16,3.1,1.76.86.56,1.68,1.14,2.45,1.75l.23-.67c2.49-7.25,4.06-14.74,4.66-22.35-2.1,7.11-5.65,13.75-10.44,19.51ZM49.93,44c.08.24.13.48.15.72.79-.63,1.63-1.23,2.52-1.81.93-.6,1.95-1.18,3.1-1.76-4.8-5.76-8.34-12.39-10.44-19.5.61,7.61,2.17,15.1,4.67,22.35ZM43.12,64.8c-.64-1.77-.97-3.58-.97-5.4,0-.17,0-.35.01-.53-6.86.55-13.75-.55-20.06-3.14,6.53,3.99,13.58,7.03,21.02,9.07ZM46.99,47.65l-.15-.02c-10.01-2.3-19-7.68-25.7-15.29,4.04,9.78,11.92,17.43,21.98,21.19.06.02.11.04.16.07.82-2.11,2.06-4.1,3.7-5.95ZM108.84,59.4c0-3.93-1.84-7.75-5.34-11.05-5.93-5.7-15.83-9.1-26.51-9.1s-20.58,3.4-26.5,9.09c-3.5,3.3-5.35,7.13-5.35,11.05,0,2.13.57,4.26,1.69,6.35l.29.4c.26.46.44.79.66,1.11l.58.85c.52.66,1.12,1.33,1.79,1.99,5.89,5.91,15.92,9.44,26.83,9.44s20.92-3.52,26.8-9.42c.76-.75,1.43-1.5,1.99-2.24l.42-.64c.21-.31.39-.64.57-.96l.31-.43c1.17-2.12,1.76-4.29,1.76-6.46ZM110.71,53.59c.06-.03.11-.05.17-.07,10.04-3.76,17.92-11.4,21.98-21.2-6.7,7.62-15.67,13.01-25.59,15.29l-.27.03c1.64,1.84,2.89,3.84,3.7,5.95ZM131.89,55.72c-6.32,2.59-13.3,3.67-20.06,3.14,0,.19.01.37.01.54,0,1.82-.33,3.63-.97,5.4,7.44-2.05,14.48-5.09,21.01-9.08ZM59.71,55.16c.93-1.61.85-3.4-.17-3.99-1.03-.59-2.61.23-3.54,1.85-.93,1.61-.85,3.4.17,3.99,1.03.59,2.61-.23,3.54-1.85ZM95.17,51.17c-1.03.59-1.1,2.38-.17,3.99.93,1.61,2.52,2.44,3.54,1.85,1.03-.59,1.1-2.38.17-3.99-.93-1.61-2.52-2.44-3.54-1.85Z"/>
</svg>