<?xml version="1.0" encoding="UTF-8"?>
<svg id="Layer_1" data-name="Layer 1" xmlns="http://www.w3.org/2000/svg" viewBox="0 0 154 95">
  <defs>
    <style>
      .cls-1 {
        fill: #fff;
      }
    </style>
  </defs>
  <path class="cls-1" d="M92.55,38.89c0,.57-.27.99-.67,1.22-.25.13-.54.22-1,.22h-.8v-2.87h.82c.42,0,.67.07.88.17.48.23.77.72.77,1.27ZM114.55,43.93v34.17c0,.96-.78,1.73-1.73,1.73h-2.8c-.96,0-1.73-.77-1.73-1.73v-27.78l-.03-.03h-62.54l-.03.03v27.78c0,.96-.78,1.73-1.73,1.73h-2.8c-.96,0-1.73-.77-1.73-1.73v-34.17c0-1.06.42-2.08,1.17-2.83l34.39-25.11c1.1-1.1,2.88-1.1,3.98,0l34.39,25.11c.75.75,1.17,1.77,1.17,2.83ZM70.13,35.4h-2.32l-2.47,3.76c-.33.52-.6.99-.8,1.39h-.03c-.25-.43-.52-.83-.85-1.3l-2.76-3.84h-2.3v11.01h2.56v-5.7c0-.3,0-.73-.02-1.1h.03c.23.42.5.75.73,1.07l2.04,2.81h1.12l1.79-2.71c.18-.28.63-.94.73-1.17h.02c-.02.33-.02.78-.02,1.19v5.61h2.56v-11.01ZM84.6,35.4h-2.32l-2.47,3.76c-.33.52-.6.99-.8,1.39h-.03c-.25-.43-.52-.83-.85-1.3l-2.76-3.84h-2.3v11.01h2.56v-5.7c0-.3,0-.73-.02-1.1h.03c.23.42.5.75.73,1.07l2.04,2.81h1.12l1.79-2.71c.18-.28.64-.94.74-1.17h.02c-.02.33-.02.78-.02,1.19v5.61h2.56v-11.01ZM96.25,46.41l-1.74-3.12c-.57-1.04-1.07-1.62-1.4-1.82v-.03c1.17-.37,2.11-1.37,2.11-2.79,0-1.22-.52-2.32-1.87-2.87-.58-.23-1.32-.37-2.27-.37h-3.54v11.01h2.56v-4.03h.74c.25.05.62.45,1.19,1.52l1.34,2.51h2.91Z"/>
</svg>