<?xml version="1.0" encoding="UTF-8"?>
<svg id="Layer_1" data-name="Layer 1" xmlns="http://www.w3.org/2000/svg" viewBox="0 0 154 95">
  <defs>
    <style>
      .cls-1 {
        fill: #fff;
        fill-rule: evenodd;
      }
    </style>
  </defs>
  <path class="cls-1" d="M72.31,23.44c-.1-1.04.58-2.16,1.76-2.14,1.2.03,2.07,1.28,1.92,2.55-.08.65-.58,1.27-1.17,1.49-1.31.47-2.39-.65-2.5-1.9ZM75.38,47.68c3.04-.75,6-.68,8.65-.53.5.03,1.13.21,1.51-.23.05-1.26-1.23-1.51-2.35-1.68-2.56-.41-6.34-.34-8.95.67-.63.24-1.36.54-1.66.91-.18.23-.37.69-.25,1.04.3.85,2.36-.02,3.05-.19ZM66.55,56.35c.2.62.83.87,1.33.83,1.25-.11,2.18-1.97,1.05-2.81-.19-.14-.37-.21-.74-.23-1-.04-2.02,1.05-1.65,2.21ZM80.18,58.29c-.75.04-1.84.23-2.61.51-.68.24-1.57.72-1.35,1.36.32.92,3.2.31,4.34.05.79-.18,1.84-.37,1.78-1.11-.07-.87-1.28-.85-2.17-.8ZM62.3,70.18c-.92.04-2.3.65-3.02,1.07-.37.22-.74.47-1.14.86-.25.24-.79.89-.38,1.27.3.28,1.14-.22,1.54-.4,1.09-.49,1.94-.87,2.94-1.41.39-.2,1.18-.52,1.12-.97-.06-.47-.72-.45-1.08-.43ZM70.98,69.9c-.04.61.72.75,1.14.9.97.35,1.82.64,3,.86.4.07,1.38.36,1.62.02.31-.44-.33-.92-.65-1.11-.48-.27-.86-.45-1.24-.6-.88-.35-1.86-.7-2.97-.63-.32.02-.87.19-.89.57ZM104.05,72.29c-.14,1.76-1.77,3.25-3.56,3.25-.19,0-.38-.02-.56-.05l-.15.08-.18.02c-.31.15-.59.28-.95.29h0c-.39,0-.67-.12-.85-.21-.28-.08-.47-.07-.66-.07-.16,0-.33,0-.51-.01l.06.28-.78.27c-.25.09-.51.16-.81.21l-.25.05-.24-.09c-.81-.3-1.05-1.03-1.19-1.46l-.64-1.75c-1.03-2.78-2-5.4-3.2-7.84-.25-.51-.51-1.02-.78-1.53-.58-1.14-1.18-2.3-1.7-3.52-.13-.32-.27-.65-.39-1-.13,1-.35,1.99-1.05,2.74-1.77,1.88-5.63,2.58-8.66,2.62h0c-.24,0-.43-.02-.63-.04-.15-.01-.29-.03-.44-.03-.39.02-.76.09-1.14.18,1.39.4,2.77,1.02,4,1.81,2.17,1.39,3.46,2.93,3.95,4.73l.17.63c.24.9.44,1.67.75,2.38.57,1.29,1.2,2.4,1.87,3.57.29.5.58,1.01.87,1.54.43.78,1.07,1.95,1.23,3.34.12.99-.13,1.94-.69,2.61-.46.56-1.1.87-1.83.92h-.02c-.99,0-2.03-.43-3.33-1.3-1.23-.83-2.36-1.94-3.45-3.02-.74-.73-1.34-1.36-1.95-1.99-1.53-1.58-3.1-3.22-4.78-4.43-.56-.4-1.2-.71-1.88-1.03-.82-.39-1.65-.79-2.39-1.38-.25.24-.52.42-.79.6-.35.23-.71.4-1.1.57-.23.1-.46.2-.7.34-2.05,1.13-3.73,3.55-4.96,5.52-.64,1.03-1.31,2.2-1.98,3.4-.77,1.38-1.56,2.68-2.91,3.4-.55.3-1.21.46-1.89.46-.95,0-1.83-.31-2.33-.82-.89-.9-.76-2.12-.65-3.09.16-1.43.43-2.63.69-3.79.13-.58.26-1.16.37-1.73l.23-1.29c.35-2.02.7-4.11,1.73-5.75,1.05-1.69,3.12-3.37,5.53-4.5.79-.37,1.62-.62,2.41-.86.45-.13.9-.27,1.32-.42,1.63-.6,2.34-1.47,2.3-2.82-.04-1.4-.75-2.28-1.57-3.3-.63-.78-1.28-1.59-1.64-2.67-.73-2.2-.43-4.56.88-6.84.9-1.56,2.03-2.97,3.57-4.44l.62-.58c1.12-1.04,2.18-2.03,2.85-3.23.88-1.56,1.31-3.46,1.23-5.35-.09-2.11-.61-4.14-1.11-6.1l-.13-.51c-.94-3.71-2.09-7.23-3.21-10.63-.49-1.5-.98-3-1.46-4.53-.09-.28-.2-.58-.32-.89-.31-.81-.62-1.64-.64-2.47-.02-.68.21-1.28.67-1.75.88-.91,2.39-1.1,3.51-1.1.99,0,2.02.16,2.69.41,1.64.62,2.87,1.86,3.76,2.86,1.65,1.88,2.78,4.18,3.67,6.18.27.61.47,1.21.68,1.85l.22.65c1.61,4.67,3.01,9.39,4.67,15.07l.16.55c.42,1.46.86,2.97,1.52,3.78.56.68,1.37,1.18,2.22,1.71.27.17.55.34.81.51,2.39,1.58,4.39,2.99,6.7,4.71.84.63,1.8,1.33,2.82,1.33.14,0,.29-.01.44-.04.2-.11.4-.22.75-.27l.58-.08.33.49c.17.26.26.55.27.85.07,0,.13-.01.2-.01.45,0,.9.2,1.21.52l.12.12.23.53-.16.5-.17.37-.18.07c0,.07.01.17.01.25,0,.21.01.43,0,.64-.02.18-.05.37-.08.54-.02.12-.05.24-.05.34,0,.72.29,1.33.61,1.99.17.34.33.68.45,1.03.74,2.03.84,4.07.29,5.74-.24.73-.35,1.44-.32,2.12.06,1.27.45,2.56.86,3.93.51,1.68,1.04,3.41.9,5.15ZM93.95,53.9c-1.21.81-1.68,2.48-1.26,4.54.39,1.92,1.66,4.01,3.3,4.56,2.48.82,4.42-1.53,4.44-3.54.02-2.16-1.28-3.98-2.53-5.26-.93-.68-2.63-1.18-3.95-.3ZM95.75,68.06c-.21-.67-.45-1.29-.64-1.98-.35.59-.87,1.06-1.3,1.59.56.24,1.17.42,1.94.39ZM94.59,69.71c.37.43,1.13.34,1.74.46-.02-.64-.38-1.25-.51-1.91-.34.54-.72,1.04-1.23,1.45ZM94.99,65.84c-.18-.59-.45-1.07-.64-1.64-.28.58-.72,1.04-1.18,1.49.52.13,1.19.33,1.82.15ZM93.36,62.23c-.22.59-.59,1.06-1.01,1.51.47.32,1.16.34,1.89.31-.24-.67-.59-1.21-.88-1.82ZM68.75,52.32c-2.92-.07-5.08,3.57-3.23,5.92,1.04,1.33,3.63,1.55,5.27.22,1.55-1.27,1.54-3.85.05-5.25-.45-.42-1.18-.87-2.09-.89ZM72.66,52.67c.55.45.97,1.11,1.85,1.05.58-.04,1.24-.29,1.92-.42,1.29-.25,2.69-.48,4.09-.57,1.03-.07,2.23,0,2.99-.43,1.22-.69,2.12-1.9,3.31-2.28l-8.4.19c-1.04.06-2.47.3-3.63.51-1.42.26-2.77.79-4.08.7.73.3,1.26.71,1.92,1.25ZM65.39,59.89c.45.65,1.07,1.5,1.18,2.77.42-1,1.15-1.75,2.2-2.26-1.27.17-2.56.07-3.37-.51ZM67.28,63.21c.89-1.99,3.77-2.48,5.14-4.06.57-.65.89-1.38,1.43-1.9,1.14-1.12,2.86-1.67,5.24-1.97.99-.12,1.95.07,2.95-.08,1.07-.16,1.95-.76,2.8-1.27,2.4-1.44,5.15-3.02,9.04-3.19-1.06-.12-2.08-.22-3.19-.4-1.01-.16-2.1-.63-3.15-.45-.85.15-1.68,1.14-2.17,1.83-.8,1.13-1.05,2.23-2.71,2.59-.94.2-2.19.16-3.4.31-1.23.16-2.35.45-3.31.64-.99.2-1.77.17-2.23-.27-.31-.3-.52-.82-.8-1.23-.49-.71-1.02-1.29-1.65-1.8,1.26,1.12,2.09,3.58,1.18,5.47-.32.67-.84,1.41-1.43,1.86-.84.64-1.96,1.04-2.69,1.77-.54.54-.98,1.28-1.05,2.16ZM88.57,43.56c.5.71,1.07,1.65,1.11,2.91.04,1.39-.76,2.6-1.74,3.15,1.36.15,2.93.15,4.64,0,1.12-.1,1.92-.46,1.21-1.58-.25-.39-.81-.84-1.23-1.21-1.25-1.12-2.72-2.28-3.99-3.26ZM75.91,30.28c1.82.02,3.26.69,4.49,1.63.12.09.24.38.41.24-.36-.93-1.41-1.42-1.7-2.4-.45-1.47.31-2.67.04-4.19-.55,2.02-1.33,3.84-3.24,4.72ZM71.84,17.21c1.84-.59,3.51.02,4.71.89-.83-1.27-1.9-2.52-3.09-3.64-1.04-.98-2.63-2.25-4.53-1.82-1.38.31-1.34,2.18-1.22,3.81.12,1.64.52,3.39.81,4.62.37-1.61,1.52-3.29,3.32-3.87ZM70.65,25.21c1.05,2.06,3.95,3.91,6.14,2.05.99-.84,1.49-2.48,1.33-4.09-.16-1.71-1.23-3.06-2.21-3.77-.58-.42-1.42-.73-2.28-.73-3.17,0-4.4,3.74-2.97,6.54ZM72.59,34.12c.57-1.74,1.64-3.02,3.23-3.79-2.17-.25-3.77-1.45-4.95-3.31.32,1.36,1.64,2.21,1.91,3.82.2,1.2-.26,2.02-.19,3.28ZM70.36,43.5c1.67-.91,4.73-1.58,7.46-1.82,3.16-.23,6.11-.19,8.29.87-1.58-1.21-2.89-2.32-4.13-4.4-.52-.88-1.04-1.93-1.49-3.04-.74-1.82-1.93-4.06-4.42-3.28-2.82.88-2.89,4.39-3.45,7.1-.4,1.93-1.16,3.41-2.26,4.57ZM69.24,48.17c0,1.24.74,2.17,1.67,2.27.6.07,1.33-.27,2.01-.43,2.07-.51,3.73-.95,6.26-1.11,2.1-.13,4.08-.13,6.14-.02.66.03,1.42.15,2.01-.09,1.67-.69,1.34-3.33-.12-4.24-.6-.37-1.44-.56-2.15-.71-2.35-.49-5.04-.41-7.97-.17-2.32.19-5.28.92-6.61,2.02-.44.36-1.22,1.61-1.22,2.48ZM69.25,50.88c-.44-.47-1.09-1.06-1.36-1.89-.53-1.63,0-3.3.6-4.29-1.15.89-1.29,2.92-2.11,4.23-.61.97-1.75,1.51-2.61,2.4-.87.9-1.39,2.44-.38,4.91-.27-2.57,2.67-5.66,5.87-5.37ZM55.98,81.88c-1.55.87-3.16-.17-3.57-1.52.6,3.59.51,5.05.51,5.05,0,0,1.36-1.97,3.07-3.53ZM62.22,74.86c-.8.3-1.69.77-2.68,1.16-.94.37-1.93.89-2.91,1.07-2.12.37-3.35-1.39-3.34-3.56,0-.11-.06-.07-.04,0-.24,1.43-.54,3.52-.57,5.19-.01.63.03,1.39.37,1.88.54.79,2.02,1.22,3.21.57.57-.31,1.07-1.03,1.51-1.57,1.33-1.62,2.73-3.46,4.45-4.74ZM66.01,69c-.44-.56-1.39-.88-2.09-.89-1.94-.02-3.84.83-5.25,1.58-1.24.66-2.82,1.72-3.44,2.98-.14.29-.32.77-.33,1.07-.05,1.19.7,2.14,1.45,2.22.65.06,2.1-.64,2.72-.91,2.19-.97,4.06-1.9,6.01-3.01.38-.22.87-.46,1.07-.7.39-.49.34-1.73-.13-2.35ZM69.31,65.61c-1.27-.17-2.43-.47-2.77-1.83-.42,1.09-1.32,1.82-2.73,2.16,1.25.19,2.47.41,3.14,1.35.64-.68,1.36-1.29,2.36-1.68ZM79.4,80.6c4.26,1.83,5.76,2.94,5.76,2.94,0,0-1.17-2.82-1.67-5.72-.13,2.27-2.36,3.27-4.09,2.78ZM77.07,75.08c-.95-.16-2.07-.63-3.17-.92-1.23-.33-2.32-.65-3.26-.95-.03.01-.04-.01-.05-.04-.04.13.14.08.19.1,2.16,1.12,4.31,2.7,6.22,4.26.7.57,1.35,1.21,2.02,1.67.39.27,1.05.55,1.57.53,1.21-.06,1.7-.88,2.01-1.72-.3-2.54-1.16-4.35-1.86-6.37.09,2-1.17,3.85-3.68,3.44ZM70.72,67.57c-.89.05-2.27.49-2.76,1.22-.27.39-.52,1.25-.18,1.96.29.6,1.29,1.04,2.02,1.33,1.61.63,3.17,1.11,4.96,1.46.91.18,1.78.47,2.64.52.44.03,1.08-.01,1.36-.13.8-.35,1.23-1.61.76-2.76-.48-1.19-2.57-2.13-3.77-2.56-1.57-.56-3.04-1.15-5.03-1.02ZM74.91,63.38c-1.41-.42-2.55-1.85-2.26-3.87-.62.78-2,1.63-2.92,2.31-.54.4-1.57,1.72-.37,2.15.83.3,3.18-.19,4.29-.38.44-.08.93-.1,1.26-.21ZM84.44,58.4c-.54-1.27-2.19-1.74-4.34-1.63-2.35.12-4.93.91-5.84,2.35-.21.33-.5,1.04-.44,1.56.11,1.08,1.13,1.78,1.93,1.98.89.23,2.51.11,3.85-.11,1.92-.32,4.04-.78,4.73-1.95.28-.48.46-1.36.1-2.2ZM87.65,53c-1.22.19-1.76,1.39-2.75,1.95-.66.37-1.57.33-2.52.41,1.41.44,2.57,1.21,3.11,2.78-.03-2.29.57-4.1,2.17-5.14ZM93.08,60.42c-.73-1.27-1.76-2.83-1.86-4.74-.09-1.7.75-2.8,1.7-3.74.01,0,.04-.01.05-.01-.01,0-.03,0-.04,0,0,0,0,0,0,0-.2.03-.84.38-1.16.57-1.62.98-3.42,2.38-3.31,4.6.09,1.84.86,3.23,1.46,4.66-.13-1.6,2.07-2.28,3.17-1.36ZM92.04,61.02c-.13.29-.33.53-.55.76.42.26,1.02.29,1.7.21-.25-.5-.54-.94-1.16-.97ZM90.97,62.02c.25-.29.54-.55.6-.98-.37.19-.67.45-.6.98ZM91.64,63.91c.48-.28,1.11-.96,1.08-1.64-.6.04-1.28-.08-1.73-.08.16.65.48,1.08.65,1.72ZM92.4,65.79c.63-.35,1.16-.78,1.31-1.5-.68-.04-1.42,0-1.92-.27.09.54.44,1.17.62,1.77ZM93.12,67.67c.65-.36,1.17-.82,1.35-1.55-.7.02-1.4.04-1.91-.18-.01.41.4,1.2.57,1.73ZM93.87,69.85c.66-.39,1.24-.84,1.38-1.64-.79.04-1.45-.09-1.98-.39-.05,0-.07.02-.08.05.24.64.45,1.32.69,1.97ZM95.91,70.32c-.75.01-1.39-.1-1.94-.35.07.63.4,1.36.6,1.98.61-.42,1.1-.93,1.33-1.63ZM95.2,71.78c.41.48,1.21.43,1.88.57-.19-.68-.44-1.27-.6-1.98-.38.5-.73,1.04-1.28,1.41ZM96.62,72.5c-.73-.05-1.43-.15-1.99-.43.12.61.44,1.4.65,2.06.59-.43,1.1-.93,1.33-1.63ZM97.92,74.52c-.3-.59-.55-1.26-.77-1.96-.36.51-.71,1.03-1.24,1.41.48.42,1.19.56,2.01.56ZM101.1,68.18c-.36-.95-1.83-3.52-.72-5.1-.56.47-1.37,1.02-2.48,1.05-.91.03-1.82-.36-2.33-.77l-.34.04c.68,1.54,1.7,4.22,2.37,6.31.24.75.4,1.53.74,2.09.36.59,1.07,1.35,1.99,1.12.87-.22,2.37-.51.77-4.74ZM79.43,39.39c2.02-.28,4.13,2.22,5.7,2.57-1.31-.87-2.52-2.22-3.73-3.84-1.09-1.45-2.22-2.54-3.98-2.43-2.71.17-3.33,1.74-4.01,3.42-.46,1.14-1.06,2.18-1.74,3.08-.22.3-.52.54-.64.89,1.38-.61,2.57-3.23,4.57-3.26.62,0,2.22,1.49,2.23,1.85.17-.52.85-2.18,1.61-2.29ZM97.28,61.6c1.45-.2,2.12-1.64,2.01-2.71-.15-1.44-.99-3.02-1.89-3.62-.38-.25-.86-.46-1.64-.39-3.83.37-1.77,7.16,1.52,6.72Z"/>
</svg>