<?xml version="1.0" encoding="UTF-8"?>
<svg id="Layer_1" data-name="Layer 1" xmlns="http://www.w3.org/2000/svg" viewBox="0 0 154 95">
  <defs>
    <style>
      .cls-1 {
        fill: #fff;
      }
    </style>
  </defs>
  <path class="cls-1" d="M59.97,13.06v28.89c0,8.88,6.8,16.17,15.48,16.95v19.95h-7.74c-.85,0-1.55.69-1.55,1.55s.69,1.55,1.55,1.55h18.58c.85,0,1.55-.7,1.55-1.55s-.69-1.55-1.55-1.55h-7.74v-19.95c8.68-.78,15.48-8.07,15.48-16.95V13.06h-34.06ZM77,54.33c-6.83,0-12.38-5.55-12.38-12.38v-9.76c0-.85.69-1.55,1.55-1.55s1.55.69,1.55,1.55v9.76c0,5.12,4.17,9.29,9.29,9.29.85,0,1.55.7,1.55,1.55s-.69,1.55-1.55,1.55Z"/>
</svg>