<?xml version="1.0" encoding="UTF-8"?>
<svg id="Layer_1" data-name="Layer 1" xmlns="http://www.w3.org/2000/svg" viewBox="0 0 154 95">
  <defs>
    <style>
      .cls-1 {
        fill: #fff;
      }
    </style>
  </defs>
  <path class="cls-1" d="M96.47,29.56s0,0,.02,0v.02s-.01,0-.01-.01v.02s.01,0,.01,0v37.5c-2.2,5.8-5.2,12.49-7.43,12.91-3.98.77-11.42-5.76-11.51-13.38-.07-5.12,2.12-9.64,4.67-11.91v-26.44l-7.02.58h0v38.48c-5.45-1.1-10.28-3.05-14.06-5.58v-27.23c-3.12,1.79-6.23,3.98-7.06,4.57.02,0,.03,0,.04.01v18.94c-6.77,1.44-14.77,2.98-15.56,2.4-1.39-1.04-3.24-6.28-3.24-13.7s2.7-10.09,4.63-11.26c.9-.54,7.34,1.37,13.59,3.43-1.69-1.95-2.12-6.45-.54-8.57,3.51-4.72,12.29-1.26,13.27,1.33.85-.38,1.72-.73,2.63-1.06,0,0-1.84-4.4-1.93-6.59-.19-4.26,6.89-11.74,18.61-8.14,9.12,2.8,10.85,13.42,10.89,13.67ZM118.67,48.1c0,3.53-6.04,10.8-15.16,15.61v-31.21c9.12,4.8,15.16,12.08,15.16,15.61ZM113.23,45.11c0-1.67-1.34-3.03-2.99-3.03s-3,1.36-3,3.03,1.34,3.02,3,3.02,2.99-1.36,2.99-3.02Z"/>
</svg>