<?xml version="1.0" encoding="UTF-8"?>
<svg id="Layer_1" data-name="Layer 1" xmlns="http://www.w3.org/2000/svg" viewBox="0 0 154 95">
  <defs>
    <style>
      .cls-1 {
        fill: #fff;
      }
    </style>
  </defs>
  <path class="cls-1" d="M57.5,37.95c.05.01.09.01.14.03,3.93.86,8.1,4.23,10.6,8.58,2.25,3.91,2.82,8.07,1.63,11.75-.97,2.99-3.01,5.36-5.5,7.08-3.06,2.09-6.81,3.19-10.09,3.19h-.32c-.42-.01-.84-.04-1.24-.08v17.32h28.1v-20.44h31.94c2.12,0,3.83-1.71,3.83-3.83,0-1.06-.43-2.02-1.12-2.71s-1.65-1.12-2.71-1.12h-20.44c-1.4,0-2.55-1.15-2.55-2.55,0-.7.28-1.34.75-1.8.46-.47,1.1-.75,1.8-.75h21.71c1.4,0,2.55-1.15,2.55-2.55v-9.11c0-2.76-1.72-5.35-4.39-6.07-.23-.06-.46-.11-.71-.15-2.41-.37-4.85.61-6.39,2.55h-8.79l-.69-2.62c-1.19-4.48-5.25-7.6-9.89-7.6h-2.69c-1.34-2.87-3.1-4.54-4.66-6-.71-.67-1.39-1.3-1.98-2.02-1.59-1.91-2.59-4.47-3-7.6-.17-1.32-1.29-2.31-2.62-2.27-1.49.05-2.65,1.36-2.46,2.84.52,4.15,1.91,7.6,4.14,10.29.79.96,1.61,1.73,2.41,2.48.8.75,1.53,1.45,2.2,2.28h-8.76c-1.23-2.11-2.68-3.49-3.99-4.72-.71-.67-1.39-1.3-1.98-2.02-1.59-1.91-2.59-4.47-3-7.6-.17-1.32-1.29-2.31-2.62-2.27-1.49.05-2.65,1.36-2.46,2.84.52,4.15,1.91,7.6,4.14,10.29.79.96,1.61,1.73,2.41,2.48.36.34.71.67,1.05,1h-3.14c-1.63,0-3.26-.37-4.7-1.15-1.21-.65-2.54-1.52-3.87-2.68-4.21-3.7-5.8-8.15-6.39-10.22-.42,2.22-1.03,7.24,1.28,12.78,3.08,7.37,9.35,10.83,12.44,12.16h0ZM107.65,41.12c1.4,0,2.55,1.15,2.55,2.55s-1.15,2.55-2.55,2.55-2.55-1.15-2.55-2.55,1.15-2.55,2.55-2.55ZM87.21,37.29c0,1.76-1.43,3.19-3.19,3.19s-3.19-1.43-3.19-3.19,1.43-3.19,3.19-3.19,3.19,1.43,3.19,3.19ZM43.83,50.39c.15.89-.74.57-1.31.5-1.61-.2-3.09-1.08-4.75-1.05-.15,3.25,1.7,6.81,3.64,9.34,1.18,1.54,2.71,3.88,5.76,5.57.96.54,3.57,1.85,6.86,1.92,5.29.11,12.13-3,14.05-8.94,2.55-7.88-4.88-16.58-10.82-17.87-1.68-.36-3.24-.37-7.33-1.08-5.64-.98-8.56-3.04-11.88-7.73-1.79,6.43.29,15.38,5.8,19.34h0Z"/>
</svg>