<?xml version="1.0" encoding="UTF-8"?>
<svg id="Layer_1" data-name="Layer 1" xmlns="http://www.w3.org/2000/svg" viewBox="0 0 154 95">
  <defs>
    <style>
      .cls-1 {
        fill: #fff;
      }
    </style>
  </defs>
  <path class="cls-1" d="M108.74,45.46h-63.47c0-17.31,14.21-31.34,31.74-31.34s31.74,14.03,31.74,31.34ZM74.18,82.47c0,1.55,1.26,2.82,2.82,2.82s2.82-1.26,2.82-2.82v-34.2h-5.63v34.2ZM55.87,68.36c0,1.56,1.26,2.82,2.82,2.82s2.82-1.26,2.82-2.82v-20.09h-5.64v20.09ZM92.49,68.36c0,1.56,1.26,2.82,2.82,2.82s2.82-1.26,2.82-2.82v-20.09h-5.64v20.09ZM83.34,75.42c0,1.55,1.27,2.82,2.82,2.82s2.82-1.26,2.82-2.82v-27.14h-5.64v27.14ZM65.03,75.42c0,1.55,1.26,2.82,2.82,2.82s2.82-1.26,2.82-2.82v-27.14h-5.64v27.14Z"/>
</svg>