<?xml version="1.0" encoding="UTF-8"?>
<svg id="Layer_1" data-name="Layer 1" xmlns="http://www.w3.org/2000/svg" viewBox="0 0 154 95">
  <defs>
    <style>
      .cls-1 {
        fill: #fff;
      }
    </style>
  </defs>
  <path class="cls-1" d="M111.45,56.8l-6.56-.08,8.69-8.49c1.03-1.01,1.05-2.65.04-3.68-1-1.03-2.65-1.05-3.69-.05l-9.07,8.86v-7.39c0-1.44-1.17-2.61-2.61-2.61s-2.6,1.17-2.6,2.61v11.46l-10.65,9.59,2.44-20.52s.1-.06.15-.1l11.43-9.54c.59-.5.93-1.23.93-2v-9.02l5.17-4.64c1.07-.96,1.16-2.6.2-3.67-.96-1.07-2.61-1.16-3.68-.2l-1.69,1.52v-5.02c0-1.44-1.16-2.61-2.6-2.61s-2.6,1.16-2.6,2.61v5.41l-2.15-1.48c-1.18-.82-2.8-.53-3.62.66-.82,1.19-.53,2.81.66,3.63l5.11,3.54v8.07l-6.41,5.36v-.14c-.23.1-.46.21-.72.27-.44.11-.89.16-1.35.16-2.89,0-5.47-2.2-6.28-5.37-.94-3.69.96-7.38,4.22-8.21.44-.11.9-.17,1.35-.17.57,0,1.12.11,1.65.27-2.22-4-6.18-7.2-10.71-7.2s-8.45,3.19-10.67,7.16c.66-.25,1.36-.39,2.07-.39.45,0,.91.06,1.35.17,3.27.83,5.16,4.51,4.22,8.21-.8,3.16-3.38,5.37-6.28,5.37-.45,0-.91-.05-1.35-.16-.44-.11-.85-.28-1.24-.49l.02.09-5.9-4.92v-8.07l5.11-3.54c1.18-.82,1.48-2.44.66-3.63-.82-1.18-2.44-1.48-3.62-.66l-2.14,1.48v-5.41c0-1.44-1.16-2.61-2.6-2.61s-2.6,1.16-2.6,2.61v5.02l-1.69-1.52c-1.07-.95-2.72-.87-3.68.2-.96,1.07-.87,2.72.2,3.67l5.17,4.64v9.02c0,.77.34,1.5.93,2l11.06,9.23,2.47,20.85-9.64-8.68v-12.28c0-1.44-1.17-2.61-2.6-2.61s-2.61,1.17-2.61,2.61v7.39l-9.07-8.86c-1.03-1-2.68-.99-3.68.05-1,1.03-.99,2.67.04,3.68l8.69,8.49-6.56.08c-1.44.02-2.59,1.2-2.57,2.64.02,1.43,1.18,2.57,2.6,2.57h.04l9.37-.12,4.24,21.52s1.44,3.57,5.45,2.92c3.97-.64,4.68-9.39,4.79-13.76l4.95,4.45c.14.13.29.23.45.32,1.15.9,2.65,1.49,4.64,1.49,1.57,0,2.85-.46,3.89-1.18.46-.09.91-.3,1.28-.63l4.85-4.36c.11,4.4.84,13.04,4.79,13.67,4,.65,5.45-2.92,5.45-2.92l4.24-21.53,10.39.13h.03c1.42,0,2.59-1.14,2.61-2.57.02-1.44-1.14-2.62-2.57-2.64Z"/>
</svg>