<?xml version="1.0" encoding="UTF-8"?>
<svg id="Layer_1" data-name="Layer 1" xmlns="http://www.w3.org/2000/svg" viewBox="0 0 154 95">
  <defs>
    <style>
      .cls-1 {
        fill: #fff;
      }
    </style>
  </defs>
  <path class="cls-1" d="M117.91,34.08c1.48,0,2.68,1.21,2.68,2.68v13.42c0,1.48-1.21,2.68-2.68,2.68h-.21c-.5-5.41-1.81-15.21-2.65-18.21-.06-.2-.12-.39-.18-.58h3.04M39.12,33.95c-.06.19-.12.38-.18.58-.84,3-2.15,12.8-2.65,18.21h-.21c-1.48,0-2.68-1.21-2.68-2.68v-13.42c0-1.48,1.21-2.68,2.68-2.68h3.04M77.17,49.66c-1.93,0-3.5-1.57-3.5-3.5s1.57-3.5,3.5-3.5,3.5,1.57,3.5,3.5-1.57,3.5-3.5,3.5M114.53,52.87h0c-.5-5.29-1.77-14.72-2.54-17.49-.13-.46-.28-.89-.45-1.3-1.03-2.51-2.85-4.1-6.25-4.99-3.76-.99-8.99-3.06-28.13-3.06s-24.37,2.08-28.12,3.06c-3.4.89-5.22,2.48-6.25,4.99-.17.41-.32.84-.45,1.3-.77,2.77-2.04,12.2-2.54,17.49-.09.99-.16,1.83-.19,2.45-.2,4,.68,5.71,3.25,7.42,1.68,1.11,3.22,2.14,5.96,3.42,2.74,1.27,6.08,2.82,9.75,2.82,2.29,0,9.85-5.74,12.63-6.21,1.81-.31,4.25-.48,5.97-.48s4.16.17,5.96.48c2.78.47,10.34,6.21,12.63,6.21,3.67,0,7.01-1.55,9.75-2.82,2.74-1.27,4.28-2.3,5.95-3.42,2.58-1.71,3.46-3.42,3.26-7.42-.03-.63-.1-1.47-.19-2.45ZM77.17,54.33c-4.51,0-8.17-3.66-8.17-8.17s3.66-8.17,8.17-8.17,8.17,3.66,8.17,8.17-3.66,8.17-8.17,8.17Z"/>
</svg>