<?xml version="1.0" encoding="UTF-8"?>
<svg id="Layer_1" data-name="Layer 1" xmlns="http://www.w3.org/2000/svg" viewBox="0 0 154 95">
  <defs>
    <style>
      .cls-1 {
        fill: #fff;
      }
    </style>
  </defs>
  <path class="cls-1" d="M133.89,49.49c-1.17-.94-6.79,3.2-8.5,4.37-1.71,1.17-2.54-.07-.9-1.47,1.64-1.4,8.08-4.22,6.6-5.78-1.48-1.56-8.17-7-14.63-10.74-2.65-1.53-5.34-3.03-8.15-4.26-.73-.31-1.45-.63-2.21-.85-.19-.06-.51-.07-.68-.17-.31-.18-.24-.1-.25-.54,0-.51.08-1.03.1-1.54.03-.98-.01-1.96-.25-2.92-.62-2.48-2.41-4.5-4.32-6.2-3.05-2.72-5.74-2.62-5.74-2.62,0,0,5.76,5.41,3.21,7.82-.08.08-5.41-6.51-11.02-8.02-5.62-1.5-7.06-.53-6.77-.38,9.23,4.66,8.82,9.24,7.37,9.45-.39.05-3.21-3.46-7.92-4.19-3.24-.5-5.81.43-5.66.58,2.9.35,7.77,3.35,5.96,5.36-.15.17-2.26-1.5-5.61-1.9-3.36-.4-4.4,1.05-4.4,1.05,0,0,1.29.34,1.8.52,3.71,1.38,1.91,3.33,1.91,3.33,0,0-4.74-.02-4.36.4.37.42.62,1.86-1.08,2.12-1.64.26-1.79-1.01-2.15-2.31-1.05-3.81.04-3.78-2.45-3.5-2.49.27-7.43,1.6-10.43,4.01-3,2.41-6.73,5.14-7.51,6.89-.78,1.75-2.38,2.84-1.83,5.14.55,2.29,1.56,4.08-.12,1.83-1.67-2.25-3.97-6.07-5.41-7.66-1.44-1.59-5.09-6.46-10.19-2.53,0,0-3.97,2.88-5.83,8.09-1.87,5.21-3.58,10.58-3.19,14.39.39,3.81,1.56,5.45,7.62,5.06,6.07-.39,8.32-.31,10.9-2.02,2.57-1.71,2.72-3.42,5.84-3.5,3.11-.08,6.85-.62,6.69.15-.15.78-.62,1.4-1.32,1.95-.7.54-1.09.54-.86,3.03.23,2.49,1.56,4.28,1.64,6.38.08,2.1,1.01,6.15,5.29,5.91,4.28-.23,7.39-2.64,9.34-4.67,1.95-2.02,3.35-5.14,5.61-5.29,2.25-.16,7.24-.47,10.35-.16,3.11.31,4.13.16,1.87,1.63-2.26,1.48-3.42,2.18-3.34,5.52.08,3.35.54,5.37,1.56,6.77,1.01,1.4,3.03,1.63,4.43.39,1.4-1.25,10.97-7.47,12.06-9.57,1.09-2.1,2.8-3.42,5.45-4.12,2.64-.7,11.83-2.72,18.28-5.53,0,0,13.1-5.99,13.7-6.92.6-.93.7-1.87-.47-2.8M117.56,46.82c-1.38,0-2.5-1.12-2.5-2.5s1.12-2.5,2.5-2.5,2.51,1.12,2.51,2.5-1.12,2.5-2.51,2.5"/>
</svg>