<?xml version="1.0" encoding="UTF-8"?>
<svg id="Layer_1" data-name="Layer 1" xmlns="http://www.w3.org/2000/svg" viewBox="0 0 154 95">
  <defs>
    <style>
      .cls-1 {
        fill: #fff;
      }
    </style>
  </defs>
  <path class="cls-1" d="M93.69,27.74c0,1.48-1.2,2.68-2.68,2.68s-2.68-1.2-2.68-2.68,1.2-2.68,2.68-2.68,2.68,1.2,2.68,2.68ZM62.65,25.06c-1.48,0-2.68,1.2-2.68,2.68s1.2,2.68,2.68,2.68,2.68-1.2,2.68-2.68-1.2-2.68-2.68-2.68ZM82.86,34.25c.02-.2-.03-.4-.16-.55-.46-3.23-4.02-7.16-5.7-7.16s-5.25,3.93-5.71,7.16c-.12.16-.18.36-.16.56.03.2.13.38.29.5l3.38,2.56-3.14,2.67c-.59.5-.66,1.39-.16,1.98.28.33.67.49,1.07.49.32,0,.64-.11.91-.33l3.52-2.99,3.52,2.99c.26.22.59.33.91.33.4,0,.79-.17,1.07-.49.5-.59.43-1.47-.16-1.98l-3.14-2.67,3.38-2.56c.16-.12.27-.3.29-.5ZM111.6,50.39c0,8.85-7.5,16.69-19.58,20.46l-.02-.05c-.37.19-.79.31-1.24.31-2.07,0-3.99-.72-5.6-1.95-1.75,3.66-4.46,6.4-6.21,7.91l6.42,7.27h-16.31l6.47-7.27c-1.76-1.5-4.45-4.24-6.2-7.9-1.61,1.23-3.53,1.95-5.6,1.95-.44,0-.86-.12-1.23-.3l-.06.19c-12.38-3.71-20.07-11.61-20.07-20.61,0-5.22,2.57-9.97,6.94-13.76-.28-1.25-.44-2.53-.44-3.84s.18-2.71.49-4.02c-1.13-.73-1.89-2-1.89-3.46,0-2.28,1.84-4.12,4.12-4.12.47,0,.92.1,1.34.24,4.96-6.44,13.98-10.77,24.3-10.77s19.33,4.33,24.3,10.77c.42-.15.87-.24,1.34-.24,2.28,0,4.12,1.84,4.12,4.12,0,1.45-.75,2.72-1.89,3.46.31,1.31.49,2.65.49,4.02,0,1.45-.19,2.86-.53,4.23,4.1,3.73,6.52,8.33,6.52,13.37ZM68.53,59.21c0-2.85-1.43-5.4-3.49-6.2-.39-.15-.72-.39-.99-.68-5.44-2.24-9.83-5.82-12.46-10.18-2.35,2.46-3.74,5.27-3.74,8.24,0,6.33,6.21,12.29,15.84,15.28.02,0,.04,0,.05,0,2.59,0,4.78-2.95,4.78-6.45ZM77.04,55.3c0-1.07-.87-1.93-1.93-1.93s-1.93.86-1.93,1.93.87,1.93,1.93,1.93,1.93-.86,1.93-1.93ZM100.17,32.79c0-9.2-10.28-16.68-22.91-16.68s-22.91,7.48-22.91,16.68c0,8.01,7.79,14.71,18.15,16.31,2.39-3.24,4.76-5.25,4.76-5.25,0,0,2.37,2.01,4.76,5.25,10.35-1.6,18.15-8.3,18.15-16.31ZM106.15,50.39c0-2.84-1.26-5.53-3.43-7.92-2.65,4.23-6.96,7.71-12.29,9.9-.26.27-.58.5-.96.64-2.05.8-3.49,3.35-3.49,6.2,0,3.36,2.03,6.19,4.49,6.41,9.52-3,15.68-8.97,15.68-15.23Z"/>
</svg>