<?xml version="1.0" encoding="UTF-8"?>
<svg id="Layer_1" data-name="Layer 1" xmlns="http://www.w3.org/2000/svg" viewBox="0 0 154 95">
  <defs>
    <style>
      .cls-1 {
        fill: #fff;
      }
    </style>
  </defs>
  <path class="cls-1" d="M101.84,56.95c1.56-3.54,2.15-15.72-1.79-26.29-4.73-12.67-12.35-18.83-23.31-18.83s-18.59,6.16-23.31,18.83c-3.97,10.64-3.01,22.14-1.83,26.25.03.1.07.21.11.31-8.4,4.66-13.75,11.58-13.75,19.32,0,.38.06.75.09,1.13,4.05-.74,7.35-3.71,8.65-7.66,1.5,4.56,5.67,7.84,10.6,7.84s9.12-3.31,10.61-7.88h0c1.45,4.45,5.45,7.69,10.2,7.87,4.92,0,9.09-3.27,10.6-7.83,1.5,4.56,5.67,7.84,10.6,7.84s9.12-3.31,10.61-7.89c1.01,3.1,3.27,5.58,6.14,6.88,0-.1.02-.21.02-.31,0-7.89-5.54-14.94-14.22-19.6ZM85.29,26.31c2.17,0,3.92,1.76,3.92,3.92s-1.76,3.92-3.92,3.92-3.92-1.76-3.92-3.92,1.76-3.92,3.92-3.92ZM76.13,41.59l-2.76-3.47c-.08-.11-.13-.24-.13-.38,0-.96,3.33-1.18,3.37-1.18,1.29,0,2.57.46,2.91.59.28.06.48.3.48.59,0,.2-.09.37-.24.48l-2.68,3.37c-.31.26-.62.25-.94,0ZM68.32,26.31c2.17,0,3.92,1.76,3.92,3.92s-1.76,3.92-3.92,3.92-3.92-1.76-3.92-3.92,1.76-3.92,3.92-3.92ZM60.8,34.53l6.33,1.74c.64.18,1.02.84.84,1.48-.15.54-.63.89-1.16.89-.11,0-.21-.01-.32-.04l-6.33-1.74c-.64-.18-1.02-.84-.85-1.48.18-.64.84-1.02,1.48-.84ZM60.9,45.94l6.02-2.62c.61-.27,1.32.01,1.59.62.22.51.07,1.09-.35,1.42-.08.07-.17.12-.28.17l-6.02,2.62c-.61.27-1.32-.01-1.59-.62-.27-.61.01-1.32.62-1.59ZM58.95,39.6l7.67.12c.67.01,1.2.56,1.19,1.23,0,.56-.39,1.02-.91,1.15-.1.03-.21.04-.32.04l-7.67-.12c-.67-.01-1.2-.56-1.19-1.23.01-.67.56-1.2,1.23-1.18ZM93.54,35.37c.18.64-.2,1.31-.85,1.48l-6.33,1.74c-.11.03-.21.04-.32.04-.53,0-1.02-.35-1.16-.89-.18-.64.2-1.31.84-1.48l6.33-1.74c.64-.18,1.31.2,1.48.84ZM92.59,47.53c-.27.61-.98.89-1.59.62l-6.02-2.62c-.1-.04-.19-.1-.28-.17-.41-.33-.57-.91-.35-1.42.27-.61.98-.89,1.59-.62l6.02,2.62c.61.26.89.98.62,1.59ZM95.14,40.79c.01.67-.52,1.22-1.19,1.23l-7.67.12c-.11,0-.22-.01-.32-.04-.51-.13-.9-.59-.91-1.15-.01-.67.52-1.21,1.19-1.23l7.67-.12c.67-.01,1.22.52,1.23,1.18Z"/>
</svg>