<?xml version="1.0" encoding="UTF-8"?>
<svg id="Layer_1" data-name="Layer 1" xmlns="http://www.w3.org/2000/svg" viewBox="0 0 154 95">
  <defs>
    <style>
      .cls-1 {
        fill: #fff;
      }
    </style>
  </defs>
  <path class="cls-1" d="M95.51,35.69c-10.05-15.56-27.88-17.53-27.88-17.53l-6.82-4.99s-6.58,2.67-8.38,11.61c-1.8,8.94,7.06,11.72,10.17,27.4,2.08,10.5-2.86,22.44-6.36,29.19.97.29,1.99.46,3.06.46,4.8,0,8.87-3.2,10.34-7.65,1.47,4.45,5.53,7.65,10.33,7.65s8.9-3.23,10.35-7.69c1.42,4.34,5.31,7.5,9.95,7.68.19,0,.37-.03.56-.04.92-7.76,3.11-33.01-5.33-46.08ZM75.46,44.59c-.16.07-.32.1-.48.1-.46,0-.9-.27-1.1-.72l-10.54-24.17,4.35,18.16c.15.64-.24,1.29-.89,1.44-.09.02-.19.03-.28.03-.54,0-1.03-.37-1.17-.92l-4.28-17.85.56,11.65c.03.66-.48,1.22-1.14,1.26h-.06c-.64,0-1.17-.5-1.2-1.14l-.54-11.26c2.39-1.71,5.13-2.25,6.8-2.4l10.57,24.25c.27.61-.01,1.31-.62,1.58ZM80.76,35.11c-2.08,0-3.76-1.68-3.76-3.76s1.68-3.76,3.76-3.76,3.76,1.68,3.76,3.76-1.68,3.76-3.76,3.76Z"/>
</svg>