<?xml version="1.0" encoding="UTF-8"?>
<svg id="Layer_1" data-name="Layer 1" xmlns="http://www.w3.org/2000/svg" viewBox="0 0 154 95">
  <defs>
    <style>
      .cls-1 {
        fill: #fff;
      }
    </style>
  </defs>
  <path class="cls-1" d="M46.93,32.56c.56-1.17,1.58-3.45,2.08-4.17.51-.71,1.78-1.63,2.75-2.44.97-.82,4.56-4.72,5.27-5.29.71-.55,1.73-.76,3.31-1.57,1.57-.82,2.89-1.88,3.76-2.74.87-.86,3.4-2.34,3.96-2.44.56-.1,1.88-1.32,1.88-1.32.51,0-1.98,3.15-2.8,4.01-.81.87-2.54,2.79-4.82,6-2.29,3.2-.82,5.23-.67,5.99.16.76,3.35,5.38,4.32,7.42.97,2.03-.25,4.47-1.22,5.54-.97,1.07-1.12,1.83-1.58,4.47-.46,2.64-2.24,3.15-3.3,3.15-1.07,0-4.27-.1-5.79-.92-1.53-.81-2.08-2.79-2.48-3.18-.39-.38-1.69.13-2.55-.33-.86-.46-1.67-3.3-2.39-4.25-.71-.94-2.74-1.19-2.95-1.44-.2-.26.1-1.27.46-2.24.36-.96,2.19-3.1,2.74-4.27M66.48,56.37c.12,0,.2-.13.38-.14.19-.02.33-.09.54-.17.21-.09.93-.03,1.13,0,.19.04.07.48,0,.69-.08.23-.8-.09-.97-.21-.15-.1-.92-.16-1.07-.16,0,0-.01,0-.02,0-.02,0,0,0,.02,0M63.15,53.08c.1-.14.95-.14,1.32-.12.37.02.25.62.19.66-.21.12-.85.1-1,.1s-.61-.5-.5-.64M63.7,54.13c.33.02.72.88,1,1.09.28.21.78.16,1.04.19.26.04.55.8.55.8,0,0-.12.12-.17,0-.05-.12-.41-.28-.66-.28s-.38-.02-.53-.16c-.16-.14-.66-.19-.95-.34s-.71-.14-.76-.43c-.05-.29-.08-.45-.22-.43-.14.01-.34-.23-.31-.43.04-.21.7-.02,1.02,0M70.55,47.9c.05.4.91,1.07,1.47,1.11.56.05,1.73.25,2.44.56.71.3,1.98.76,2.29.76s3.91.15,5.59.91c1.68.76,2.69,2.69,3.25,3.45.56.76,2.13,3.91,3.15,4.57,1.01.66,2.69,1.93,2.39.56-.3-1.37-2.18-2.39-2.49-2.64-.3-.25-1.98-1.11-1.88-2.74.1-1.62,1.68-.2,2.09.35.4.56,2.33,3.76,2.69,4.17.36.4,2.95,3.76,3.35,4.93.4,1.17.51,2.59,0,4.22-.51,1.63.1,2.39.25,3.05.15.67.31,2.69.66,3.25.36.56.25,1.78,2.18.86,1.93-.92,2.29-.92,2.59-.92s.51.96-.36,1.42c-.87.46-1.96,1.24-2.54,1.73,0,0-2.74,2.39-3.55,2.39s-4.32-.15-5.08,0c-.76.15-3.05,2.19-3.86,2.34-.81.15-2.95-.51-3.35,0-.41.51-2.69,1.88-3.46,1.93-.76.05-6.5-.2-7.67-.4-1.17-.2-6.55-2.38-7.11-2.92-.56-.54-2.54-1.8-1.53-2.16,1.02-.36,2.8,0,4.02.56,1.22.56,2.49,1.98,3.05,2.59.56.61,3.66,1.42,4.57.92.91-.51.61-1.06.46-1.06s-1.58-.26-1.83-.41c-.25-.16-.96-.46-1.32-.43-.36.02-2.19-.03-2.19-.28,0-.26-.55-2.54-.55-2.54,0,0-2.03.3-2.29.3s-1.01-.25-1.52-.81c-.51-.56-1.17-1.07-1.42-1.07s-1.18-.05-1.25-.25c-.07-.2-.68-.97-.27-1.42.4-.46.51-1.17.51-1.37,0-.2-.43.2-.64.71-.22.51-.63,1.02-.78.92-.16-.1-.56-.61-1.12-.92-.56-.3-1.06-.25-1.06-.41,0-.15.15-.86.55-.91.41-.05,1.02.36,1.02,0,0-.36.1-1.37.76-1.68.66-.3,2.24-.2,2.59-.46.36-.25,1.52-1.45,1.78-2.76.25-1.31.56-2.38,1.17-2.94.61-.56,1.67-1.88,1.67-2.89s-.81-1.73-1.17-2.44c-.36-.71-.41-1.22-.05-1.12.36.1,2.24,1.88,2.59,2.03.36.15.76.71,3,.46,2.24-.25,4.83-1.3,6-2.5,1.17-1.2.86-3.18.3-4.1-.56-.91-1.88-1.47-2.84-1.32-.96.15-1.88,1.37-2.49,1.83-.61.46-1.27,1.02-1.52.35-.25-.66-.15-2.89-.56-3.4-.4-.51-2.24-2.13-2.74-2.74-.51-.61-1.22-1.82-1.83-1.88-.61-.05-2.94-.81-2.94-.81,0,0,0-1.17.35-1.32.36-.15,2.13.3,3.2.71,1.07.4,3.25,1.68,3.3,2.08M56.57,54.41c-.17.17-.4-.05-.4-.37,0-.32-.08-.51.07-.7.16-.19.78.25.78.25l.07.14c.07.14-.52.69-.52.69M77.14,84.5c20.56,0,37.23-16.57,37.23-37.01S97.7,10.49,77.14,10.49c-20.56,0-37.23,16.56-37.23,37,0,20.44,16.67,37.01,37.23,37.01"/>
</svg>