<?xml version="1.0" encoding="UTF-8"?>
<svg id="Layer_1" data-name="Layer 1" xmlns="http://www.w3.org/2000/svg" viewBox="0 0 154 95">
  <defs>
    <style>
      .cls-1 {
        fill: #fff;
      }
    </style>
  </defs>
  <path class="cls-1" d="M109.21,47.25c-.83,0-1.52-.69-1.52-1.54s.68-1.54,1.52-1.54,1.52.69,1.52,1.54-.68,1.54-1.52,1.54M109.83,41.31c-11.38-4.42-22.06-4.77-22.59-5.1-1.65-2.97-11.26-16.18-14.13-16.51-2.72-.32,3.09,14.38.89,17.72l-5.02,1.66c-14.22,3.3-26.51,2.84-26.51,2.84,0,0-2.52-4.61-4.65-7.13-4.53-5.39-13.22-11.43-12.45-8.97.77,2.46,8.91,16.57,10.34,25.16,1.52,9.16-4.4,13.27-2.72,13.58,1.68.31,4.27-.49,6.43-3.77,1.99-3.02,3.06-5.59,4.39-7.92,7.34,1.31,14.37,2.85,25.49,4.77,7.07,1.23,9.27,1.34,11.35,2.68,3.75,6.39-2.49,11.66-2.84,14.16-.35,2.5,12.76,1.42,16.17-14.19l16.7-6.02s8.49-3.51,10.18-7.84c1.33-3.4-8.42-4.12-11.03-5.13"/>
</svg>