<?xml version="1.0" encoding="UTF-8"?>
<svg id="Layer_1" data-name="Layer 1" xmlns="http://www.w3.org/2000/svg" viewBox="0 0 154 95">
  <defs>
    <style>
      .cls-1 {
        fill: #fff;
      }
    </style>
  </defs>
  <path class="cls-1" d="M118.27,52.6l-9.83-4.33c-.45-.18-1.08-.27-1.53-.18l-7.67,1.35c-.54-.81-1.17-1.53-1.89-2.25l5.59-7.03c.9-1.17.99-2.89.09-4.06l-5.77-8.3c1.35-2.89,1.08-6.49-1.08-9.29-1.89-2.52-4.78-3.79-7.57-3.61-.72,0-1.26.81-.99,1.53l2.16,6.22c.27.72-.54,1.35-1.17.9l-5.5-3.7c-.63-.45-1.53-.18-1.71.54-.81,2.62-.36,5.77,1.53,8.3,2.25,2.89,5.86,4.15,9.02,3.43l4.06,5.86-4.24,5.32c-1.62-.81-3.34-1.53-5.23-2.07.09-.27.09-.45.09-.72,0-1.89-1.53-3.43-3.43-3.43-1.71,0-3.16,1.26-3.34,2.98-.9-.09-1.89-.09-2.8-.09s-1.89.09-2.8.09c-.18-1.62-1.62-2.98-3.34-2.98-1.89,0-3.43,1.53-3.43,3.43,0,.27,0,.54.09.72-1.89.54-3.61,1.26-5.23,2.07l-4.24-5.32,4.06-5.86c3.16.72,6.76-.54,9.02-3.43,1.89-2.52,2.34-5.59,1.53-8.3-.27-.72-1.08-.99-1.71-.54l-5.5,3.7c-.63.45-1.44-.18-1.17-.9l2.16-6.22c.27-.72-.27-1.53-.99-1.53-2.8-.09-5.68,1.17-7.57,3.61-2.16,2.8-2.43,6.49-1.08,9.29l-5.77,8.3c-.9,1.26-.81,2.89.09,4.06l5.59,7.03c-.72.72-1.35,1.53-1.89,2.25l-7.57-1.35c-.54-.09-1.08,0-1.53.18l-9.92,4.33c-1.44.63-2.07,2.25-1.44,3.61.45,1.08,1.44,1.62,2.52,1.62.36,0,.72-.09,1.08-.27l9.11-3.97,5.59.99v2.43l-5.95.81c-.63.09-1.17.36-1.53.81l-7.39,7.39c-1.08,1.08-1.08,2.8,0,3.88.54.54,1.26.81,1.98.81s1.44-.27,1.98-.81l6.76-6.76,5.77-.81c.45.72.9,1.53,1.44,2.16l-4.24,2.52c-.45.27-.72.63-.99.99l-4.33,7.94c-.72,1.35-.27,2.98,1.08,3.79.45.27.9.36,1.35.36.99,0,1.89-.54,2.43-1.44l3.97-7.21,5.05-3.07c4.42,2.98,10.46,4.78,17.04,4.78s12.72-1.8,17.04-4.78l5.05,3.07,3.97,7.21c.54.9,1.44,1.44,2.43,1.44.45,0,.9-.09,1.35-.36,1.35-.72,1.8-2.43,1.08-3.79l-4.42-7.76c-.27-.45-.54-.81-.99-.99l-4.24-2.62c.54-.72.99-1.44,1.44-2.16l5.77.81,6.76,6.76c.54.54,1.26.81,1.98.81s1.44-.27,1.98-.81c1.08-1.08,1.08-2.8,0-3.88l-7.39-7.39c-.45-.45-.99-.72-1.53-.81l-6.04-.9v-.54c0-.63-.09-1.26-.18-1.8l5.59-.99,9.11,3.97c.36.18.72.27,1.08.27,1.08,0,2.07-.63,2.52-1.62.72-1.44.09-3.07-1.26-3.7Z"/>
</svg>