<?xml version="1.0" encoding="UTF-8"?>
<svg id="Layer_1" data-name="Layer 1" xmlns="http://www.w3.org/2000/svg" viewBox="0 0 154 95">
  <defs>
    <style>
      .cls-1 {
        fill: #fff;
      }
    </style>
  </defs>
  <path class="cls-1" d="M72.18,14.67l-8.98,33.32c-.33,1.24-.07,2.54.75,3.68.84,1.18,2.17,2.03,3.72,2.39.54.13,1.1.2,1.64.2,2.6,0,4.81-1.46,5.37-3.55l8.98-33.32-11.49-2.73ZM93.84,31.89c-.11-.17-.23-.33-.36-.48-.02-.03-.05-.06-.07-.09-.02-.03-.04-.04-.07-.06-.87-.93-2.13-1.53-3.54-1.53h-6.94l-2.69,9.98h7.5v26.26h-31.03v9.94c0,2.44,2.13,4.44,4.73,4.44h29.86c1.29,0,2.45-.49,3.31-1.28,0,0,9.39-6.63,9.39-20.49,0-10.52-6.8-22.23-10.08-26.67M77.95,63.85c-.18,0-.37-.02-.56-.06l-25.43-5.62c-1.31-.29-2.12-1.52-1.81-2.75.31-1.22,1.62-1.99,2.93-1.7l25.43,5.62c1.31.29,2.12,1.52,1.81,2.74-.26,1.05-1.26,1.76-2.37,1.76"/>
</svg>